<?xml version="1.0" encoding="utf-8"?>
<!-- Generator: Adobe Illustrator 24.0.1, SVG Export Plug-In . SVG Version: 6.00 Build 0)  -->
<svg version="1.1" xmlns="http://www.w3.org/2000/svg" xmlns:xlink="http://www.w3.org/1999/xlink" x="0px" y="0px"
	 viewBox="0 0 128 128" style="enable-background:new 0 0 128 128;" xml:space="preserve">
<style type="text/css">
	.st0{fill:#00FFEE;}
	.st1{fill:#DDDDDD;}
	.st2{fill:#00FFEE;stroke:#00FFEE;stroke-width:0.5;stroke-miterlimit:10;}
	.st3{fill:#00FFEE;stroke:#00FFEE;stroke-miterlimit:10;}
	.st4{fill:#FFFFFF;}
	.st5{stroke:#000000;stroke-miterlimit:10;}
	.st6{fill:#DDDDDD;stroke:#DDDDDD;stroke-width:0.981;stroke-miterlimit:10;}
	.st7{fill:#FC94FF;}
	.st8{fill:#DDDDDD;stroke:#DDDDDD;stroke-width:0.5037;stroke-miterlimit:10;}
</style>
<g id="blue">
</g>
<g id="pink">
	<g>
		<path class="st1" d="M84.4,73c-0.11-1.34-1.05-2.47-2.35-2.81c-1.02-0.26-1.99-0.09-2.74,0.49c-0.84,0.65-1.33,1.76-1.33,3.04
			c-0.01,3.97-0.01,7.93-0.01,11.9c0,3.7,0,7.41,0,11.11c-0.01,4.75-3.08,7.82-7.82,7.83c-4.88,0.01-9.76,0.01-14.64,0l-0.92,0
			c-0.29,0-0.57-0.02-0.89-0.04l-1.13-0.07v-9.65c0-24.09,0-48.18-0.01-72.27v-0.24c0-0.87,0-1.77-0.17-2.57
			c-0.79-3.78-3.04-6.34-6.7-7.62c-2.01-0.71-4.04-1.38-6.06-2.05L36.3,8.94l0.37-1.44h1.7c2.99,0,5.99,0.01,8.98,0.01
			c7.37,0.02,14.99,0.04,22.48-0.06c2.3-0.03,4.44,0.8,5.96,2.33c1.5,1.51,2.26,3.55,2.21,5.89c-0.14,6.41-0.09,12.94-0.04,19.26
			l0.02,3.11c0.01,0.91,0.21,1.82,0.58,2.49c0.64,1.19,2.09,1.74,3.54,1.34c1.42-0.4,2.3-1.62,2.31-3.19l0-0.98
			c0.02-7.42,0.04-15.1,0-22.65c-0.04-7.98-6.11-14-14.11-14.01c-19.48-0.02-38.95-0.01-58.42,0l-1.04,0c-4.25,0-8.1,2.85-9.38,6.93
			C1.34,8.34,1.22,8.71,1.09,9.08L1,9.37v98.5c0.07,0.12,0.15,0.28,0.19,0.47c0.83,3.82,3.17,6.4,6.96,7.67
			c7.69,2.58,15.39,5.13,23.09,7.69l7.85,2.6c0.5,0.17,1,0.32,1.51,0.48l0.59,0.18h2.85c0.07-0.05,0.16-0.09,0.27-0.12
			c5.72-1.54,8.27-4.86,8.27-10.77l0-5.04l7.04,0c3.51,0,7.01,0,10.52,0c8.25-0.01,14.26-5.99,14.29-14.21
			c0.02-5.4,0.01-10.8,0.01-16.2l0-6.69C84.43,73.6,84.43,73.3,84.4,73z M46.11,116.77c-0.03,1.39-0.54,2.5-1.44,3.13
			c-0.53,0.38-1.18,0.57-1.89,0.57c-0.47,0-0.97-0.08-1.49-0.25c-4.7-1.55-9.4-3.12-14.09-4.68l-16.66-5.55
			c-2.35-0.78-3.06-1.78-3.06-4.26V11.68c0-1.69,0.47-2.88,1.41-3.56c0.94-0.68,2.23-0.75,3.85-0.21L43,18
			c2.41,0.8,3.11,1.78,3.11,4.35l0,93.63C46.11,116.24,46.11,116.51,46.11,116.77z"/>
		<path class="st1" d="M126.01,53.77c-6.27-6.3-13.03-13.06-19.92-19.84c-0.47-0.46-1.28-0.84-2.11-0.99
			c-1.24-0.21-2.53,0.53-3.13,1.81c-0.6,1.3-0.34,2.65,0.73,3.73c2.68,2.7,5.38,5.4,8.08,8.09l3.88,3.88c0.2,0.2,0.38,0.4,0.61,0.65
			l1.58,1.7l-26.79,0c-5.14,0-10.28,0-15.42,0.01c-1.68,0-2.94,0.86-3.36,2.28c-0.3,1.02-0.14,2.02,0.45,2.82
			c0.64,0.86,1.71,1.35,2.92,1.35c7.45,0.01,14.89,0.01,22.34,0.01l8.51,0h11.38l-1.67,1.75c-0.26,0.28-0.46,0.49-0.67,0.7
			l-3.65,3.64c-2.75,2.74-5.49,5.48-8.22,8.24c-1.35,1.37-1.38,3.31-0.06,4.62c1.29,1.29,3.24,1.28,4.53,0
			c6.4-6.34,12.94-12.86,19.99-19.94C127.33,56.98,127.32,55.08,126.01,53.77z"/>
	</g>
</g>
</svg>
